<?xml version="1.0" standalone="no"?>
<!DOCTYPE svg PUBLIC "-//W3C//DTD SVG 1.1//EN" "http://www.w3.org/Graphics/SVG/1.1/DTD/svg11.dtd" >
<svg>
<metadata>
Created by FontForge 20090622 at Tue Nov 20 05:23:56 2018
 By ffonts
(C)1999 Yuji Adachi
</metadata>
<defs>
<font id="UHF" horiz-adv-x="750" >
  <font-face 
    font-family="UHF"
    font-weight="400"
    font-stretch="normal"
    units-per-em="1000"
    panose-1="0 0 4 0 0 0 0 0 0 0"
    ascent="875"
    descent="-125"
    x-height="625"
    cap-height="875"
    bbox="0 -125 630 875"
    underline-thickness="20"
    underline-position="-123"
    unicode-range="U+0020-U+2022"
  />
<missing-glyph horiz-adv-x="500" 
d="M63 0v875h375v-875h-375zM125 63h250v750h-250v-750z" />
    <glyph glyph-name=".notdef" horiz-adv-x="500" 
d="M63 0v875h375v-875h-375zM125 63h250v750h-250v-750z" />
    <glyph glyph-name=".null" horiz-adv-x="0" 
 />
    <glyph glyph-name="nonmarkingreturn" 
 />
    <glyph glyph-name="space" unicode=" " 
 />
    <glyph glyph-name="exclam" unicode="!" horiz-adv-x="500" 
d="M187 125q26 0 44.5 -18.5t18.5 -44.5q0 -25 -18.5 -43.5t-44.5 -18.5q-25 0 -43.5 18.5t-18.5 43.5q0 26 18.5 44.5t43.5 18.5zM125 812q0 26 18.5 44.5t43.5 18.5q26 0 44.5 -18.5t18.5 -44.5v-500q0 -25 -18.5 -43.5t-44.5 -18.5q-25 0 -43.5 18.5t-18.5 43.5v500z" />
    <glyph glyph-name="quotedbl" unicode="&#x22;" 
d="M438 875h125q25 0 43.5 -18.5t18.5 -44.5v-250q0 -25 -18.5 -43.5t-43.5 -18.5q-26 0 -44.5 18.5t-18.5 43.5v63h-62q-26 0 -44.5 18.5t-18.5 43.5v125q0 26 18.5 44.5t44.5 18.5zM63 875h125q25 0 43.5 -18.5t18.5 -44.5v-250q0 -25 -18.5 -43.5t-43.5 -18.5
q-26 0 -44.5 18.5t-18.5 43.5v63h-62q-26 0 -44.5 18.5t-18.5 43.5v125q0 26 18.5 44.5t44.5 18.5z" />
    <glyph glyph-name="numbersign" unicode="#" 
d="M250 375h125v125h-125v-125zM563 375q25 0 43.5 -18.5t18.5 -44.5q0 -25 -18.5 -43.5t-43.5 -18.5h-63v-63q0 -25 -18.5 -43.5t-43.5 -18.5q-26 0 -44.5 18.5t-18.5 43.5v63h-125v-63q0 -25 -18.5 -43.5t-43.5 -18.5q-26 0 -44.5 18.5t-18.5 43.5v63h-62
q-26 0 -44.5 18.5t-18.5 43.5q0 26 18.5 44.5t44.5 18.5h62v125h-62q-26 0 -44.5 18.5t-18.5 43.5q0 26 18.5 44.5t44.5 18.5h62v62q0 26 18.5 44.5t44.5 18.5q25 0 43.5 -18.5t18.5 -44.5v-62h125v62q0 26 18.5 44.5t44.5 18.5q25 0 43.5 -18.5t18.5 -44.5v-62h63
q25 0 43.5 -18.5t18.5 -44.5q0 -25 -18.5 -43.5t-43.5 -18.5h-63v-125h63z" />
    <glyph glyph-name="dollar" unicode="$" 
d="M416 254l58 58l-58 58q-5 4 -11 5h-30v-125h30q6 1 11 4zM220 500h30v125h-30q-6 -1 -11 -5l-58 -58l58 -58q5 -3 11 -4zM504 460l103 -103q18 -19 18 -45q0 -25 -18 -44l-103 -103q-41 -40 -98 -40h-31v-63q0 -25 -18.5 -43.5t-43.5 -18.5q-26 0 -44.5 18.5t-18.5 43.5
v63h-187q-26 0 -44.5 18.5t-18.5 43.5q0 26 18.5 44.5t44.5 18.5h187v125h-31q-57 0 -98 40l-103 103q-18 19 -18 44q0 26 18 45l103 103q41 40 98 40h31v62q0 26 18.5 44.5t44.5 18.5q25 0 43.5 -18.5t18.5 -44.5v-62h188q25 0 43.5 -18.5t18.5 -44.5q0 -25 -18.5 -43.5
t-43.5 -18.5h-188v-125h31q57 0 98 -40z" />
    <glyph glyph-name="percent" unicode="%" 
d="M500 812q0 26 18.5 44.5t44.5 18.5q25 0 43.5 -18.5t18.5 -44.5v-93q0 -57 -40 -98l-455 -455q-4 -5 -5 -11v-92q0 -26 -18.5 -44.5t-43.5 -18.5q-26 0 -44.5 18.5t-18.5 44.5v93q0 57 40 98l456 455q3 5 4 11v92zM143 857q19 18 45 18q25 0 44 -18l125 -125
q18 -19 18 -45q0 -25 -18 -44l-125 -125q-19 -18 -44 -18q-26 0 -45 18l-125 125q-18 19 -18 44q0 26 18 45zM188 724l-37 -37l37 -36l36 36zM393 357q19 18 45 18q25 0 44 -18l125 -125q18 -19 18 -45q0 -25 -18 -44l-125 -125q-19 -18 -44 -18q-26 0 -45 18l-125 125
q-18 19 -18 44q0 26 18 45zM438 224l-37 -37l37 -36l36 36z" />
    <glyph glyph-name="ampersand" unicode="&#x26;" 
d="M291 129l58 58l-162 162l-57 -58q-4 -5 -5 -11v-60q1 -6 5 -11l79 -80q5 -3 11 -4h60q6 1 11 4zM125 655v-60q1 -6 5 -11l57 -58l162 161l-58 59q-5 3 -11 4h-60q-6 -1 -11 -4l-79 -80q-4 -5 -5 -11zM526 187l81 -80q18 -19 18 -45q0 -25 -18.5 -43.5t-44.5 -18.5
q-25 0 -44 18l-81 81l-58 -59q-41 -40 -98 -40h-62q-57 0 -98 40l-81 81q-40 41 -40 98v62q0 57 40 98l59 58l-59 59q-40 41 -40 98v62q0 57 40 98l81 81q41 40 98 40h62q57 0 98 -40l103 -103q18 -19 18 -45q0 -25 -18 -44l-206 -206l161 -161l81 81q19 18 44 18
q26 0 44.5 -18.5t18.5 -44.5q0 -25 -18 -44z" />
    <glyph glyph-name="quotesingle" unicode="'" horiz-adv-x="625" 
d="M188 875h125q25 0 43.5 -18.5t18.5 -44.5v-250q0 -25 -18.5 -43.5t-43.5 -18.5q-26 0 -44.5 18.5t-18.5 43.5v63h-62q-26 0 -44.5 18.5t-18.5 43.5v125q0 26 18.5 44.5t44.5 18.5z" />
    <glyph glyph-name="parenleft" unicode="(" horiz-adv-x="500" 
d="M268 857q19 18 44 18q26 0 44.5 -18.5t18.5 -44.5q0 -25 -18 -44l-228 -227q-3 -5 -4 -11v-185q1 -6 4 -11l228 -227q18 -19 18 -44q0 -26 -18.5 -44.5t-44.5 -18.5q-25 0 -44 18l-228 228q-40 41 -40 98v187q0 57 40 98z" />
    <glyph glyph-name="parenright" unicode=")" horiz-adv-x="500" 
d="M63 875q25 0 44 -18l228 -228q40 -41 40 -98v-187q0 -57 -40 -98l-228 -228q-19 -18 -44 -18q-26 0 -44.5 18.5t-18.5 44.5q0 25 18 44l228 227q3 5 4 11v185q-1 6 -4 11l-228 227q-18 19 -18 44q0 26 18.5 44.5t44.5 18.5z" />
    <glyph glyph-name="asterisk" unicode="*" horiz-adv-x="500" 
d="M276 563l81 -81q18 -19 18 -44q0 -26 -18.5 -44.5t-43.5 -18.5q-26 0 -45 18l-80 81l-81 -81q-19 -18 -45 -18q-25 0 -43.5 18.5t-18.5 44.5q0 25 18 44l81 81l-81 80q-18 19 -18 44q0 26 18.5 44.5t43.5 18.5q26 0 45 -18l81 -81l80 81q19 18 45 18q25 0 43.5 -18.5
t18.5 -44.5q0 -25 -18 -44z" />
    <glyph glyph-name="plus" unicode="+" horiz-adv-x="500" 
d="M313 500q25 0 43.5 -18.5t18.5 -44.5q0 -25 -18.5 -43.5t-43.5 -18.5h-63v-62q0 -26 -18.5 -44.5t-43.5 -18.5q-26 0 -44.5 18.5t-18.5 44.5v62h-62q-26 0 -44.5 18.5t-18.5 44.5q0 25 18.5 43.5t44.5 18.5h62v62q0 26 18.5 44.5t44.5 18.5q25 0 43.5 -18.5t18.5 -44.5
v-62h63z" />
    <glyph glyph-name="comma" unicode="," horiz-adv-x="625" 
d="M187 250h125q26 0 44.5 -18.5t18.5 -44.5v-250q0 -25 -18.5 -43.5t-44.5 -18.5q-25 0 -43.5 18.5t-18.5 43.5v63h-63q-25 0 -43.5 18.5t-18.5 43.5v125q0 26 18.5 44.5t43.5 18.5z" />
    <glyph glyph-name="hyphen" unicode="-" horiz-adv-x="500" 
d="M0 437q0 26 18.5 44.5t44.5 18.5h250q25 0 43.5 -18.5t18.5 -44.5q0 -25 -18.5 -43.5t-43.5 -18.5h-250q-26 0 -44.5 18.5t-18.5 43.5z" />
    <glyph glyph-name="hyphen" unicode="&#x2010;" horiz-adv-x="500" 
d="M0 437q0 26 18.5 44.5t44.5 18.5h250q25 0 43.5 -18.5t18.5 -44.5q0 -25 -18.5 -43.5t-43.5 -18.5h-250q-26 0 -44.5 18.5t-18.5 43.5z" />
    <glyph glyph-name="period" unicode="." horiz-adv-x="625" 
d="M187 250h125q26 0 44.5 -18.5t18.5 -44.5v-125q0 -25 -18.5 -43.5t-44.5 -18.5h-125q-25 0 -43.5 18.5t-18.5 43.5v125q0 26 18.5 44.5t43.5 18.5z" />
    <glyph glyph-name="slash" unicode="/" 
d="M500 812q0 26 18.5 44.5t43.5 18.5q26 0 44.5 -18.5t18.5 -44.5v-93q0 -57 -40 -98l-456 -455q-3 -5 -4 -11v-92q0 -26 -18.5 -44.5t-43.5 -18.5q-26 0 -44.5 18.5t-18.5 44.5v93q0 57 40 98l455 455q4 5 5 11v92z" />
    <glyph glyph-name="zero" unicode="0" 
d="M500 220v435q-1 6 -5 11l-79 80q-5 3 -11 4h-185q-6 -1 -11 -4l-80 -80q-3 -5 -4 -11v-435q1 -6 4 -11l80 -80q5 -3 11 -4h185q6 1 11 4l79 80q4 5 5 11zM504 835l81 -81q40 -41 40 -98v-437q0 -57 -40 -98l-81 -81q-41 -40 -98 -40h-187q-57 0 -98 40l-81 81
q-40 41 -40 98v437q0 57 40 98l81 81q41 40 98 40h187q57 0 98 -40z" />
    <glyph glyph-name="one" unicode="1" 
d="M562 125q26 0 44.5 -18.5t18.5 -43.5q0 -26 -18.5 -44.5t-44.5 -18.5h-499q-26 0 -44.5 18.5t-18.5 44.5q0 25 18.5 43.5t44.5 18.5h187v537l-143 -144q-19 -18 -44 -18q-26 0 -44.5 18.5t-18.5 43.5q0 26 18 45l250 250q19 18 45 18q25 0 43.5 -18.5t18.5 -44.5v-687
h187z" />
    <glyph glyph-name="two" unicode="2" 
d="M585 496q40 41 40 98v62q0 57 -40 98l-81 81q-41 40 -98 40h-187q-57 0 -98 -40l-103 -103q-18 -19 -18 -45q0 -25 18.5 -43.5t44.5 -18.5q25 0 44 18l102 103q5 3 11 4h185q6 -1 11 -4l79 -80q4 -5 5 -11v-60q-1 -6 -5 -11l-477 -477q-18 -19 -18 -45q0 -25 18.5 -43.5
t44.5 -18.5h500q25 0 43.5 18.5t18.5 44.5q0 25 -18.5 43.5t-43.5 18.5h-350z" />
    <glyph glyph-name="three" unicode="3" 
d="M625 594q0 -57 -40 -98l-59 -59l59 -58q40 -41 40 -98v-62q0 -57 -40 -98l-81 -81q-41 -40 -98 -40h-187q-57 0 -98 40l-103 103q-18 19 -18 45q0 25 18.5 43.5t44.5 18.5q25 0 44 -18l102 -102q5 -4 11 -5h185q6 1 11 5l80 79q3 5 4 11v60q-1 6 -4 11l-80 79q-5 4 -11 5
h-217q-26 0 -44.5 18.5t-18.5 43.5q0 26 18.5 44.5t44.5 18.5h217q6 1 11 4l79 80q4 5 5 11v60q-1 6 -4 11l-80 79q-5 4 -11 5h-185q-6 -1 -11 -5l-102 -102q-19 -18 -44 -18q-26 0 -44.5 18.5t-18.5 43.5q0 26 18 45l103 103q41 40 98 40h187q57 0 98 -40l81 -81
q40 -41 40 -98v-62z" />
    <glyph glyph-name="four" unicode="4" 
d="M125 375h250v287l-245 -246q-4 -5 -5 -11v-30zM563 375q25 0 43.5 -18.5t18.5 -43.5q0 -26 -18.5 -44.5t-43.5 -18.5h-63v-187q0 -26 -18.5 -44.5t-43.5 -18.5q-26 0 -44.5 18.5t-18.5 44.5v187h-312q-26 0 -44.5 18.5t-18.5 44.5v93q0 57 40 98l353 353q19 18 45 18
q25 0 43.5 -18.5t18.5 -44.5v-437h63z" />
    <glyph glyph-name="five" unicode="5" 
d="M94 875h468q26 0 44.5 -18.5t18.5 -44.5q0 -25 -18.5 -43.5t-44.5 -18.5h-437v-125h281q57 0 98 -40l81 -81q40 -41 40 -98v-187q0 -57 -40 -98l-81 -81q-41 -40 -98 -40h-187q-57 0 -98 40l-103 103q-18 19 -18 45q0 25 18.5 43.5t44.5 18.5q25 0 44 -18l102 -102
q5 -4 11 -5h185q6 1 11 5l80 79q3 5 4 11v185q-1 6 -4 11l-80 79q-5 4 -11 5h-311q-39 0 -66.5 27.5t-27.5 66.5v187q0 39 27.5 66.5t66.5 27.5z" />
    <glyph glyph-name="six" unicode="6" 
d="M220 125h185q6 1 11 4l79 80q4 5 5 11v60q-1 6 -5 11l-79 79q-5 4 -11 5h-280v-155q1 -6 4 -11l80 -80q5 -3 11 -4zM406 0h-187q-57 0 -98 40l-81 81q-40 41 -40 98v312q0 57 40 98l206 206q41 40 98 40h93q26 0 44.5 -18.5t18.5 -44.5q0 -25 -18.5 -43.5t-44.5 -18.5
h-92q-6 -1 -11 -4l-205 -205q-3 -5 -4 -11v-30h281q57 0 98 -40l81 -81q40 -41 40 -98v-62q0 -57 -40 -98l-81 -81q-41 -40 -98 -40z" />
    <glyph glyph-name="seven" unicode="7" 
d="M63 875h468q39 0 66.5 -27.5t27.5 -66.5v-62q0 -57 -40 -98l-205 -205q-4 -5 -5 -11v-342q0 -26 -18.5 -44.5t-43.5 -18.5q-26 0 -44.5 18.5t-18.5 44.5v343q0 57 40 98l205 205q4 5 5 11v30h-437q-26 0 -44.5 18.5t-18.5 43.5q0 26 18.5 44.5t44.5 18.5z" />
    <glyph glyph-name="eight" unicode="8" 
d="M500 220v60q-1 6 -4 11l-80 79q-5 4 -11 5h-185q-6 -1 -11 -5l-80 -79q-3 -5 -4 -11v-60q1 -6 4 -11l80 -79q5 -4 11 -5h185q6 1 11 4l80 80q3 5 4 11zM125 655v-60q1 -6 4 -11l80 -79q5 -4 11 -5h185q6 1 11 5l79 79q4 5 5 11v60q-1 6 -5 11l-79 80q-5 3 -11 4h-185
q-6 -1 -11 -4l-80 -80q-3 -5 -4 -11zM625 594q0 -57 -40 -98l-59 -58l59 -59q40 -41 40 -98v-62q0 -57 -40 -98l-81 -81q-41 -40 -98 -40h-187q-57 0 -98 40l-81 81q-40 41 -40 98v62q0 57 40 98l59 59l-59 58q-40 41 -40 98v62q0 57 40 98l81 81q41 40 98 40h187
q57 0 98 -40l81 -81q40 -41 40 -98v-62z" />
    <glyph glyph-name="nine" unicode="9" 
d="M405 750h-185q-6 -1 -11 -4l-79 -80q-4 -5 -5 -11v-60q1 -6 5 -11l79 -79q5 -4 11 -5h280v155q-1 6 -5 11l-79 80q-5 3 -11 4zM219 875h187q57 0 98 -40l81 -81q40 -41 40 -98v-312q0 -57 -40 -98l-206 -206q-41 -40 -98 -40h-93q-26 0 -44.5 18.5t-18.5 44.5
q0 25 18.5 43.5t44.5 18.5h92q6 1 11 4l205 205q3 5 4 11v30h-281q-57 0 -98 40l-81 81q-40 41 -40 98v62q0 57 40 98l81 81q41 40 98 40z" />
    <glyph glyph-name="colon" unicode=":" horiz-adv-x="625" 
d="M188 750h125q25 0 43.5 -18.5t18.5 -44.5v-125q0 -25 -18.5 -43.5t-43.5 -18.5h-125q-26 0 -44.5 18.5t-18.5 43.5v125q0 26 18.5 44.5t44.5 18.5zM188 250h125q25 0 43.5 -18.5t18.5 -44.5v-125q0 -25 -18.5 -43.5t-43.5 -18.5h-125q-26 0 -44.5 18.5t-18.5 43.5v125
q0 26 18.5 44.5t44.5 18.5z" />
    <glyph glyph-name="semicolon" unicode=";" horiz-adv-x="625" 
d="M188 750h125q25 0 43.5 -18.5t18.5 -44.5v-125q0 -25 -18.5 -43.5t-43.5 -18.5h-125q-26 0 -44.5 18.5t-18.5 43.5v125q0 26 18.5 44.5t44.5 18.5zM188 250h125q25 0 43.5 -18.5t18.5 -44.5v-250q0 -25 -18.5 -43.5t-43.5 -18.5q-26 0 -44.5 18.5t-18.5 43.5v63h-62
q-26 0 -44.5 18.5t-18.5 43.5v125q0 26 18.5 44.5t44.5 18.5z" />
    <glyph glyph-name="less" unicode="&#x3c;" horiz-adv-x="500" 
d="M268 732q19 18 45 18q25 0 43.5 -18.5t18.5 -44.5q0 -25 -18 -44l-206 -206l206 -205q18 -19 18 -44q0 -26 -18.5 -44.5t-44.5 -18.5q-25 0 -44 18l-250 250q-18 19 -18 44q0 26 18 45z" />
    <glyph glyph-name="equal" unicode="=" horiz-adv-x="500" 
d="M63 375h249q26 0 44.5 -18.5t18.5 -43.5q0 -26 -18.5 -44.5t-44.5 -18.5h-249q-26 0 -44.5 18.5t-18.5 44.5q0 25 18.5 43.5t44.5 18.5zM63 625h249q26 0 44.5 -18.5t18.5 -44.5q0 -25 -18.5 -43.5t-44.5 -18.5h-249q-26 0 -44.5 18.5t-18.5 43.5q0 26 18.5 44.5
t44.5 18.5z" />
    <glyph glyph-name="greater" unicode="&#x3e;" horiz-adv-x="500" 
d="M63 750q25 0 44 -18l250 -250q18 -19 18 -44q0 -26 -18 -45l-250 -250q-19 -18 -45 -18q-25 0 -43.5 18.5t-18.5 44.5q0 25 18 44l206 206l-206 205q-18 19 -18 44q0 26 18.5 44.5t44.5 18.5z" />
    <glyph glyph-name="question" unicode="?" 
d="M313 125q25 0 43.5 -18.5t18.5 -44.5q0 -25 -18.5 -43.5t-43.5 -18.5q-26 0 -44.5 18.5t-18.5 43.5q0 26 18.5 44.5t44.5 18.5zM219 875h187q57 0 98 -40l81 -81q40 -41 40 -98v-62q0 -57 -40 -98l-228 -228q-19 -18 -44 -18q-26 0 -44.5 18.5t-18.5 44.5q0 25 18 44
l227 227q4 5 5 11v60q-1 6 -4 11l-80 79q-5 4 -11 5h-185q-6 -1 -11 -4l-102 -103q-19 -18 -44 -18q-26 0 -44.5 18.5t-18.5 43.5q0 26 18 45l103 103q41 40 98 40z" />
    <glyph glyph-name="at" unicode="@" 
d="M500 470v185q-1 6 -4 11l-80 79q-5 4 -11 5h-185q-6 -1 -11 -5l-80 -79q-3 -5 -4 -11v-30h188q25 0 43.5 -18.5t18.5 -44.5v-187h30q6 1 11 5l80 79q3 5 4 11zM125 500v-125h125v125h-125zM585 754q40 -41 40 -98v-187q0 -57 -40 -98l-81 -81q-41 -40 -98 -40h-281v-30
q1 -6 4 -11l80 -79q5 -4 11 -5h217q26 0 44.5 -18.5t18.5 -44.5q0 -25 -18.5 -43.5t-44.5 -18.5h-218q-57 0 -98 40l-81 81q-40 41 -40 98v437q0 57 40 98l81 81q41 40 98 40h187q57 0 98 -40z" />
    <glyph glyph-name="A" unicode="A" 
d="M125 500h375v30q-1 6 -4 11l-183 183l-184 -183q-3 -5 -4 -11v-30zM585 629q40 -41 40 -98v-468q0 -26 -18.5 -44.5t-43.5 -18.5q-26 0 -44.5 18.5t-18.5 44.5v312h-375v-312q0 -26 -18.5 -44.5t-43.5 -18.5q-26 0 -44.5 18.5t-18.5 44.5v468q0 57 40 98l228 228
q19 18 44 18q26 0 45 -18z" />
    <glyph glyph-name="B" unicode="B" 
d="M500 220v60q-1 6 -4 11l-80 79q-5 4 -11 5h-280v-250h280q6 1 11 4l80 80q3 5 4 11zM125 750v-250h280q6 1 11 4l80 80q3 5 4 11v60q-1 6 -4 11l-80 80q-5 3 -11 4h-280zM625 594q0 -57 -40 -98l-59 -59l59 -58q40 -41 40 -98v-62q0 -57 -40 -98l-81 -81q-41 -40 -98 -40
h-343q-26 0 -44.5 18.5t-18.5 43.5v750q0 26 18.5 44.5t44.5 18.5h343q57 0 98 -40l81 -81q40 -41 40 -98v-62z" />
    <glyph glyph-name="C" unicode="C" 
d="M130 666q-4 -5 -5 -11v-435q1 -6 5 -11l79 -79q5 -4 11 -5h185q6 1 11 4l102 103q19 18 44 18q26 0 44.5 -18.5t18.5 -44.5q0 -25 -18 -44l-103 -103q-41 -40 -98 -40h-187q-57 0 -98 40l-81 81q-40 41 -40 98v437q0 57 40 98l81 81q41 40 98 40h187q57 0 98 -40
l103 -103q18 -19 18 -44q0 -26 -18.5 -44.5t-44.5 -18.5q-25 0 -44 18l-102 103q-5 3 -11 4h-185q-6 -1 -11 -5z" />
    <glyph glyph-name="D" unicode="D" 
d="M495 209q4 5 5 11l-1 435q0 6 -4 11l-79 80q-5 3 -11 4h-280v-625h280q6 1 11 5zM584 754q40 -41 40 -98l1 -437q0 -57 -40 -98l-81 -81q-41 -40 -98 -40h-343q-26 0 -44.5 18.5t-18.5 44.5v749q0 26 18.5 44.5t44.5 18.5h343q57 0 98 -41z" />
    <glyph glyph-name="E" unicode="E" 
d="M563 750h-438v-250h313q25 0 43.5 -18.5t18.5 -43.5q0 -26 -18.5 -44.5t-43.5 -18.5h-313v-250h438q25 0 43.5 -18.5t18.5 -43.5q0 -26 -18.5 -44.5t-43.5 -18.5h-500q-26 0 -44.5 18.5t-18.5 44.5v749q0 26 18.5 44.5t44.5 18.5h500q25 0 43.5 -18.5t18.5 -44.5
q0 -25 -18.5 -43.5t-43.5 -18.5z" />
    <glyph glyph-name="F" unicode="F" 
d="M562 875q26 0 44.5 -18.5t18.5 -44.5q0 -25 -18.5 -43.5t-44.5 -18.5h-437v-250h313q25 0 43.5 -18.5t18.5 -43.5q0 -26 -18.5 -44.5t-43.5 -18.5h-313v-312q0 -26 -18.5 -44.5t-43.5 -18.5q-26 0 -44.5 18.5t-18.5 44.5v749q0 26 18.5 44.5t44.5 18.5h499z" />
    <glyph glyph-name="G" unicode="G" 
d="M129 666q-3 -5 -4 -11v-435q1 -6 4 -11l80 -80q5 -3 11 -4h185q6 1 11 4l80 80q3 5 4 11v155h-62q-26 0 -44.5 18.5t-18.5 44.5q0 25 18.5 43.5t44.5 18.5h125q25 0 43.5 -18.5t18.5 -44.5v-218q0 -57 -40 -98l-81 -81q-41 -40 -98 -40h-187q-57 0 -98 40l-81 81
q-40 41 -40 98v437q0 57 40 98l81 81q41 40 98 40h187q57 0 98 -40l103 -103q18 -19 18 -45q0 -25 -18.5 -43.5t-44.5 -18.5q-25 0 -44 18l-102 103q-5 3 -11 4h-185q-6 -1 -11 -4z" />
    <glyph glyph-name="H" unicode="H" 
d="M563 875q26 0 44 -18.5t18 -44.5v-750q0 -25 -18 -43.5t-44 -18.5t-44.5 18.5t-18.5 43.5v313h-375v-313q0 -25 -18 -43.5t-44 -18.5t-44.5 18.5t-18.5 43.5v750q0 26 18.5 44.5t44.5 18.5t44 -18.5t18 -44.5v-312h375v312q0 26 18.5 44.5t44.5 18.5z" />
    <glyph glyph-name="I" unicode="I" horiz-adv-x="485" 
d="M313 125q25 0 43.5 -18.5t18.5 -44.5q0 -25 -18.5 -43.5t-43.5 -18.5h-250q-26 0 -44.5 18.5t-18.5 43.5q0 26 18.5 44.5t44.5 18.5h62v625h-62q-26 0 -44.5 18.5t-18.5 43.5q0 26 18.5 44.5t44.5 18.5h250q25 0 43.5 -18.5t18.5 -44.5q0 -25 -18.5 -43.5t-43.5 -18.5
h-63v-625h63z" />
    <glyph glyph-name="J" unicode="J" 
d="M563 875q25 0 43.5 -18.5t18.5 -44.5v-593q0 -57 -40 -98l-81 -81q-41 -40 -98 -40h-187q-57 0 -98 40l-81 81q-40 41 -40 98v94q0 25 18.5 43.5t44.5 18.5q25 0 43.5 -18.5t18.5 -43.5v-93q1 -6 4 -11l80 -79q5 -4 11 -5h185q6 1 11 5l80 79q3 5 4 11v592
q0 26 18.5 44.5t44.5 18.5z" />
    <glyph glyph-name="K" unicode="K" 
d="M625 812q0 -25 -18 -44l-331 -331l330 -330q18 -19 18 -44q0 -26 -18 -44.5t-44 -18.5t-44 18l-356 357h-37v-313q0 -25 -18 -43.5t-44 -18.5t-44.5 18.5t-18.5 43.5v750q0 26 18.5 44.5t44.5 18.5t44 -18.5t18 -44.5v-312h37l356 357q19 18 45 18t44 -18.5t18 -44.5z
" />
    <glyph glyph-name="L" unicode="L" 
d="M563 125q25 0 43.5 -18.5t18.5 -44.5q0 -25 -18.5 -43.5t-43.5 -18.5h-500q-26 0 -44.5 18.5t-18.5 43.5v750q0 26 18.5 44.5t44.5 18.5q25 0 43.5 -18.5t18.5 -44.5v-687h438z" />
    <glyph glyph-name="M" unicode="M" 
d="M625 812v-749q0 -26 -18.5 -44.5t-44.5 -18.5q-25 0 -43.5 18.5t-18.5 44.5v599l-143 -144q-19 -18 -44 -18q-26 0 -45 18l-143 144v-600q0 -25 -18.5 -43.5t-43.5 -18.5q-26 0 -44.5 18.5t-18.5 43.5v750q0 26 18.5 44.5t43.5 18.5q26 0 45 -18l206 -206l205 206
q19 18 45 18q25 0 43.5 -18.5t18.5 -44.5z" />
    <glyph glyph-name="N" unicode="N" 
d="M563 875q26 0 44 -18.5t18 -44.5v-750q0 -25 -18 -43.5t-44 -18.5t-44.5 18.5t-18.5 43.5v225l-375 375v-600q0 -25 -18 -43.5t-44 -18.5t-44.5 18.5t-18.5 43.5v750q0 26 18.5 44.5t44.5 18.5t44 -18l393 -394v349q0 26 18.5 44.5t44.5 18.5z" />
    <glyph glyph-name="O" unicode="O" 
d="M313 151l182 183q4 5 5 11v185q-1 6 -4 11l-183 183l-183 -183q-4 -5 -5 -11v-185q1 -6 5 -11zM585 629q40 -41 40 -98v-187q0 -57 -40 -98l-228 -228q-19 -18 -45 -18q-25 0 -44 18l-227 228q-41 41 -41 98v187q0 57 40 98l228 228q19 18 45 18q25 0 44 -18z" />
    <glyph glyph-name="P" unicode="P" 
d="M500 595v60q-1 6 -4 11l-80 80q-5 3 -11 4h-280v-250h280q6 1 11 4l80 80q3 5 4 11zM585 754q40 -41 40 -98v-62q0 -57 -40 -98l-81 -81q-41 -40 -98 -40h-281v-312q0 -26 -18.5 -44.5t-43.5 -18.5q-26 0 -44.5 18.5t-18.5 44.5v749q0 26 18.5 44.5t44.5 18.5h343
q57 0 98 -40z" />
    <glyph glyph-name="Q" unicode="Q" 
d="M357 357q-19 18 -44 18q-26 0 -44.5 -18.5t-18.5 -44.5q0 -25 18 -44l81 -81l-58 -58q-5 -3 -11 -4h-60q-6 1 -11 5l-80 79q-3 5 -4 11v435q1 6 4 11l80 79q5 4 11 5h185q6 -1 11 -5l80 -79q3 -5 4 -11v-310q-1 -6 -4 -11l-59 -58zM625 344v312q0 57 -40 98l-81 81
q-41 40 -98 40h-187q-57 0 -98 -40l-81 -81q-40 -41 -40 -98v-437q0 -57 40 -98l81 -81q41 -40 98 -40h62q57 0 98 40l58 59l81 -81q19 -18 44 -18q26 0 44.5 18.5t18.5 44.5q0 25 -18 44l-81 80l59 59q40 41 40 98z" />
    <glyph glyph-name="R" unicode="R" 
d="M125 750h280q6 -1 11 -5l80 -79q3 -5 4 -11v-60q-1 -6 -4 -11l-80 -79q-5 -4 -11 -5h-280v250zM607 107l-269 268h68q57 0 98 40l81 81q40 41 40 98v62q0 57 -40 98l-81 81q-41 40 -98 40h-343q-26 0 -44.5 -18.5t-18.5 -44.5v-749q0 -26 18.5 -44.5t44.5 -18.5
q25 0 43.5 18.5t18.5 44.5v312h37l356 -357q19 -18 45 -18q25 0 43.5 18.5t18.5 43.5q0 26 -18 45z" />
    <glyph glyph-name="S" unicode="S" 
d="M219 875q-57 0 -98 -40l-81 -81q-40 -41 -40 -98v-62q0 -57 40 -98l81 -81q41 -40 98 -40h186q6 -1 11 -5l80 -79q3 -5 4 -11v-60q-1 -6 -4 -11l-80 -79q-5 -4 -11 -5h-185q-6 1 -11 5l-102 102q-19 18 -44 18q-26 0 -44.5 -18.5t-18.5 -43.5q0 -26 18 -45l103 -103
q41 -40 98 -40h187q57 0 98 40l81 81q40 41 40 98v62q0 57 -40 98l-81 81q-41 40 -98 40h-186q-6 1 -11 5l-80 79q-3 5 -4 11v60q1 6 4 11l80 79q5 4 11 5h185q6 -1 11 -5l102 -102q19 -18 45 -18q25 0 43.5 18.5t18.5 43.5q0 26 -18 45l-103 103q-41 40 -98 40h-187z" />
    <glyph glyph-name="T" unicode="T" 
d="M563 875q25 0 43.5 -18.5t18.5 -44.5q0 -25 -18.5 -43.5t-43.5 -18.5h-188v-687q0 -26 -18.5 -44.5t-43.5 -18.5q-26 0 -44.5 18.5t-18.5 44.5v687h-187q-26 0 -44.5 18.5t-18.5 43.5q0 26 18.5 44.5t44.5 18.5h500z" />
    <glyph glyph-name="U" unicode="U" 
d="M562 875q26 0 44.5 -18.5t18.5 -44.5v-593q0 -57 -40 -98l-81 -81q-41 -40 -98 -40h-187q-60 0 -99 46l-85 98q-35 41 -35 96v572q0 26 18.5 44.5t43.5 18.5q26 0 44.5 -18.5t18.5 -44.5v-572q0 -8 6 -15l83 -97q3 -2 6 -3h185q6 1 11 4l80 80q3 5 4 11v592
q0 26 18.5 44.5t43.5 18.5z" />
    <glyph glyph-name="V" unicode="V" 
d="M562 875q26 0 44.5 -18.5t18.5 -44.5v-468q0 -57 -40 -98l-228 -228q-19 -18 -45 -18q-25 0 -44 18l-228 228q-40 41 -40 98v468q0 26 18.5 44.5t43.5 18.5q26 0 44.5 -18.5t18.5 -44.5v-467q1 -6 5 -11l182 -183l183 183q4 5 5 11v467q0 26 18.5 44.5t43.5 18.5z" />
    <glyph glyph-name="W" unicode="W" 
d="M563 875q25 0 43.5 -18.5t18.5 -44.5v-749q0 -26 -18.5 -44.5t-43.5 -18.5q-28 0 -46 20l-204 221l-205 -221q-18 -20 -46 -20q-25 0 -43.5 18.5t-18.5 44.5v749q0 26 18.5 44.5t44.5 18.5q25 0 43.5 -18.5t18.5 -44.5v-610l142 153q18 20 46 20q27 0 45 -20l142 -153
v610q0 26 18.5 44.5t44.5 18.5z" />
    <glyph glyph-name="X" unicode="X" 
d="M563 875q25 0 43.5 -18.5t18.5 -44.5v-93q0 -57 -40 -98l-184 -184l184 -183q40 -41 40 -98v-93q0 -26 -18.5 -44.5t-43.5 -18.5q-26 0 -44.5 18.5t-18.5 44.5v92q-1 6 -4 11l-183 183l-184 -183q-3 -5 -4 -11v-92q0 -26 -18.5 -44.5t-43.5 -18.5q-26 0 -44.5 18.5
t-18.5 44.5v93q0 57 40 98l184 184l-184 183q-40 41 -40 98v93q0 26 18.5 44.5t44.5 18.5q25 0 43.5 -18.5t18.5 -44.5v-92q1 -6 4 -11l184 -183l183 183q3 5 4 11v92q0 26 18.5 44.5t44.5 18.5z" />
    <glyph glyph-name="Y" unicode="Y" 
d="M563 875q25 0 43.5 -18.5t18.5 -44.5v-93q0 -57 -40 -98l-210 -209v-350q0 -25 -18.5 -43.5t-43.5 -18.5q-26 0 -44.5 18.5t-18.5 43.5v350l-210 209q-40 41 -40 98v93q0 26 18.5 44.5t44.5 18.5q25 0 43.5 -18.5t18.5 -44.5v-92q1 -6 4 -11l184 -183l183 183q3 5 4 11
v92q0 26 18.5 44.5t44.5 18.5z" />
    <glyph glyph-name="Z" unicode="Z" 
d="M563 875q25 0 43.5 -18.5t18.5 -44.5v-93q0 -57 -40 -98l-456 -455q-3 -5 -4 -11v-30h438q25 0 43.5 -18.5t18.5 -44.5q0 -25 -18.5 -43.5t-43.5 -18.5h-500q-26 0 -44.5 18.5t-18.5 43.5v94q0 57 40 98l456 455q3 5 4 11v30h-437q-26 0 -44.5 18.5t-18.5 43.5
q0 26 18.5 44.5t44.5 18.5h500z" />
    <glyph glyph-name="bracketleft" unicode="[" horiz-adv-x="500" 
d="M313 750h-188v-625h188q25 0 43.5 -18.5t18.5 -44.5q0 -25 -18.5 -43.5t-43.5 -18.5h-250q-26 0 -44.5 18.5t-18.5 43.5v750q0 26 18.5 44.5t44.5 18.5h250q25 0 43.5 -18.5t18.5 -44.5q0 -25 -18.5 -43.5t-43.5 -18.5z" />
    <glyph glyph-name="backslash" unicode="\" 
d="M129 709l456 -455q40 -41 40 -98v-93q0 -26 -18.5 -44.5t-43.5 -18.5q-26 0 -44.5 18.5t-18.5 44.5v92q-1 6 -4 11l-456 455q-40 41 -40 98v93q0 26 18.5 44.5t44.5 18.5q25 0 43.5 -18.5t18.5 -44.5v-92q1 -6 4 -11z" />
    <glyph glyph-name="bracketright" unicode="]" horiz-adv-x="500" 
d="M313 875q25 0 43.5 -18.5t18.5 -44.5v-750q0 -25 -18.5 -43.5t-43.5 -18.5h-250q-26 0 -44.5 18.5t-18.5 43.5q0 26 18.5 44.5t44.5 18.5h187v625h-187q-26 0 -44.5 18.5t-18.5 43.5q0 26 18.5 44.5t44.5 18.5h250z" />
    <glyph glyph-name="asciicircum" unicode="^" horiz-adv-x="500" 
d="M357 732q18 -19 18 -45q0 -25 -18.5 -43.5t-43.5 -18.5q-26 0 -45 18l-81 81l-80 -81q-19 -18 -45 -18q-25 0 -43.5 18.5t-18.5 43.5q0 26 18 45l125 125q19 18 44 18q26 0 45 -18z" />
    <glyph glyph-name="underscore" unicode="_" 
d="M63 0h500q25 0 43.5 -18.5t18.5 -43.5q0 -26 -18.5 -44.5t-43.5 -18.5h-500q-26 0 -44.5 18.5t-18.5 44.5q0 25 18.5 43.5t44.5 18.5z" />
    <glyph glyph-name="grave" unicode="`" horiz-adv-x="375" 
d="M62 875q26 0 45 -18l125 -125q18 -19 18 -45q0 -25 -18.5 -43.5t-43.5 -18.5q-26 0 -45 18l-125 125q-18 19 -18 44q0 26 18.5 44.5t43.5 18.5z" />
    <glyph glyph-name="a" unicode="a" 
d="M500 125v125h-287l-62 -63l62 -62h287zM504 585l81 -81q40 -41 40 -98v-344q0 -25 -18.5 -43.5t-43.5 -18.5h-375q-26 0 -45 18l-125 125q-18 19 -18 44q0 26 18 45l125 125q19 18 45 18h312v30q-1 6 -4 11l-80 79q-5 4 -11 5h-217q-26 0 -44.5 18.5t-18.5 43.5
q0 26 18.5 44.5t44.5 18.5h218q57 0 98 -40z" />
    <glyph glyph-name="b" unicode="b" 
d="M500 220v185q-1 6 -4 11l-80 79q-5 4 -11 5h-280v-375h280q6 1 11 4l80 80q3 5 4 11zM504 585l81 -81q40 -41 40 -98v-187q0 -57 -40 -98l-81 -81q-41 -40 -98 -40h-343q-26 0 -44.5 18.5t-18.5 43.5v750q0 26 18.5 44.5t44.5 18.5q25 0 43.5 -18.5t18.5 -44.5v-187h281
q57 0 98 -40z" />
    <glyph glyph-name="c" unicode="c" 
d="M567 130h1q26 0 44 -18t18 -44t-18 -44t-43 -19l-349 -5h-2q-57 0 -97 40l-81 81q-40 41 -40 98v187q0 57 40 98l81 81q41 40 98 40h187q57 0 98 -40l103 -103q18 -19 18 -44q0 -26 -18.5 -44.5t-43.5 -18.5q-26 0 -45 18l-102 102q-5 4 -11 5h-185q-6 -1 -11 -5l-80 -79
q-3 -5 -4 -11v-185q1 -6 4 -11l80 -79q4 -4 10 -5z" />
    <glyph glyph-name="d" unicode="d" 
d="M500 125v375h-280q-6 -1 -11 -5l-80 -79q-3 -5 -4 -11v-185q1 -6 4 -11l80 -80q5 -3 11 -4h280zM563 875q25 0 43.5 -18.5t18.5 -44.5v-750q0 -25 -18.5 -43.5t-43.5 -18.5h-344q-57 0 -98 40l-81 81q-40 41 -40 98v187q0 57 40 98l81 81q41 40 98 40h281v187
q0 26 18.5 44.5t44.5 18.5z" />
    <glyph glyph-name="e" unicode="e" 
d="M125 405v-30h375v30q-1 6 -4 11l-80 80q-5 3 -11 4h-185q-6 -1 -11 -4l-80 -80q-3 -5 -4 -11zM585 504q40 -41 40 -98v-93q0 -26 -18.5 -44.5t-43.5 -18.5h-438v-30q1 -6 4 -11l80 -80q5 -3 11 -4h343q25 0 43.5 -18.5t18.5 -43.5q0 -26 -18.5 -44.5t-43.5 -18.5h-344
q-57 0 -98 40l-81 81q-40 41 -40 98v187q0 57 40 98l81 81q41 40 98 40h187q57 0 98 -40z" />
    <glyph glyph-name="f" unicode="f" horiz-adv-x="625" 
d="M438 875q25 0 43.5 -18.5t18.5 -44.5q0 -25 -18.5 -43.5t-43.5 -18.5h-93q-6 -1 -11 -4l-79 -80q-4 -5 -5 -11v-30h63q25 0 43.5 -18.5t18.5 -44.5q0 -25 -18.5 -43.5t-43.5 -18.5h-63v-438q0 -25 -18.5 -43.5t-43.5 -18.5q-26 0 -44.5 18.5t-18.5 43.5v438h-62
q-26 0 -44.5 18.5t-18.5 43.5q0 26 18.5 44.5t44.5 18.5h62v31q0 57 40 98l81 81q41 40 98 40h94z" />
    <glyph glyph-name="g" unicode="g" 
d="M220 250h280v250h-280q-6 -1 -11 -5l-80 -79q-3 -5 -4 -11v-60q1 -6 4 -11l80 -79q5 -4 11 -5zM563 625q25 0 43.5 -18.5t18.5 -43.5v-469q0 -57 -40 -98l-81 -81q-41 -40 -98 -40h-218q-26 0 -44.5 18.5t-18.5 44.5q0 25 18.5 43.5t44.5 18.5h217q6 1 11 5l80 79
q3 5 4 11v30h-281q-57 0 -98 40l-81 81q-40 41 -40 98v62q0 57 40 98l81 81q41 40 98 40h344z" />
    <glyph glyph-name="h" unicode="h" 
d="M504 585l81 -81q40 -41 40 -98v-344q0 -25 -18.5 -43.5t-43.5 -18.5q-26 0 -44.5 18.5t-18.5 43.5v343q-1 6 -4 11l-80 80q-5 3 -11 4h-280v-438q0 -25 -18.5 -43.5t-43.5 -18.5q-26 0 -44.5 18.5t-18.5 43.5v750q0 26 18.5 44.5t44.5 18.5q25 0 43.5 -18.5t18.5 -44.5
v-187h281q57 0 98 -40z" />
    <glyph glyph-name="i" unicode="i" horiz-adv-x="500" 
d="M250 812q0 -25 -18.5 -43.5t-43.5 -18.5q-26 0 -44.5 18.5t-18.5 43.5q0 26 18.5 44.5t44.5 18.5q25 0 43.5 -18.5t18.5 -44.5zM313 125q25 0 43.5 -18.5t18.5 -44.5q0 -25 -18.5 -43.5t-43.5 -18.5h-250q-26 0 -44.5 18.5t-18.5 43.5q0 26 18.5 44.5t44.5 18.5h62v375
h-62q-26 0 -44.5 18.5t-18.5 43.5q0 26 18.5 44.5t44.5 18.5h125q25 0 43.5 -18.5t18.5 -44.5v-437h63z" />
    <glyph glyph-name="j" unicode="j" horiz-adv-x="500" 
d="M375 812q0 -25 -18.5 -43.5t-43.5 -18.5q-26 0 -44.5 18.5t-18.5 43.5q0 26 18.5 44.5t44.5 18.5q25 0 43.5 -18.5t18.5 -44.5zM312 625q26 0 44.5 -18.5t18.5 -44.5v-468q0 -57 -40 -98l-81 -81q-41 -40 -98 -40h-94q-25 0 -43.5 18.5t-18.5 43.5q0 26 18.5 44.5
t43.5 18.5h93q6 1 11 4l79 80q4 5 5 11v405h-63q-25 0 -43.5 18.5t-18.5 43.5q0 26 18.5 44.5t43.5 18.5h125z" />
    <glyph glyph-name="k" unicode="k" horiz-adv-x="625" 
d="M500 562q0 -25 -18 -44l-206 -206l205 -205q18 -19 18 -44q0 -26 -18 -44.5t-44 -18.5t-44 18l-231 232h-37v-188q0 -25 -18.5 -43.5t-44.5 -18.5q-25 0 -43.5 18.5t-18.5 43.5v750q0 26 18.5 44.5t43.5 18.5q26 0 44.5 -18.5t18.5 -44.5v-437h37l231 232q19 18 45 18
t44 -18.5t18 -44.5z" />
    <glyph glyph-name="l" unicode="l" horiz-adv-x="500" 
d="M313 125q25 0 43.5 -18.5t18.5 -44.5q0 -25 -18.5 -43.5t-43.5 -18.5h-250q-26 0 -44.5 18.5t-18.5 43.5q0 26 18.5 44.5t44.5 18.5h62v625h-62q-26 0 -44.5 18.5t-18.5 43.5q0 26 18.5 44.5t44.5 18.5h125q25 0 43.5 -18.5t18.5 -44.5v-687h63z" />
    <glyph glyph-name="m" unicode="m" 
d="M504 585l81 -81q40 -41 40 -98v-344q0 -25 -18.5 -43.5t-43.5 -18.5q-26 0 -44.5 18.5t-18.5 43.5v343q-1 6 -4 11l-80 80q-5 3 -11 4h-30v-438q0 -25 -18.5 -43.5t-43.5 -18.5q-26 0 -44.5 18.5t-18.5 43.5v438h-125v-438q0 -25 -18.5 -43.5t-43.5 -18.5
q-26 0 -44.5 18.5t-18.5 43.5v500q0 26 18.5 44.5t44.5 18.5h343q57 0 98 -40z" />
    <glyph glyph-name="n" unicode="n" 
d="M504 585l81 -81q40 -41 40 -98v-344q0 -25 -18.5 -43.5t-44.5 -18.5q-25 0 -43.5 18.5t-18.5 43.5v343q-1 6 -5 11l-79 80q-5 3 -11 4h-280v-438q0 -25 -18 -43.5t-44 -18.5t-44.5 18.5t-18.5 43.5v500q0 26 18.5 44.5t44.5 18.5h343q57 0 98 -40z" />
    <glyph glyph-name="o" unicode="o" 
d="M500 220v185q-1 6 -4 11l-80 80q-5 3 -11 4h-185q-6 -1 -11 -4l-79 -80q-4 -5 -5 -11v-185q1 -6 5 -11l79 -80q5 -3 11 -4h185q6 1 11 4l80 80q3 5 4 11zM504 585l81 -81q40 -41 40 -98v-187q0 -57 -40 -98l-81 -81q-41 -40 -98 -40h-187q-57 0 -98 40l-81 81
q-40 41 -40 98v187q0 57 40 98l81 81q41 40 98 40h187q57 0 98 -40z" />
    <glyph glyph-name="p" unicode="p" 
d="M500 345v60q-1 6 -5 11l-79 80q-5 3 -11 4h-280v-250h280q6 1 11 4l79 80q4 5 5 11zM504 585l81 -81q40 -41 40 -98v-62q0 -57 -40 -98l-81 -81q-41 -40 -98 -40h-281v-188q0 -25 -18.5 -43.5t-44.5 -18.5q-25 0 -43.5 18.5t-18.5 43.5v625q0 26 18.5 44.5t43.5 18.5h344
q57 0 98 -40z" />
    <glyph glyph-name="q" unicode="q" 
d="M220 250h280v250h-280q-6 -1 -11 -4l-80 -80q-3 -5 -4 -11v-60q1 -6 4 -11l80 -80q5 -3 11 -4zM562 625q26 0 44.5 -18.5t18.5 -44.5v-625q0 -25 -18.5 -43.5t-44.5 -18.5q-25 0 -43.5 18.5t-18.5 43.5v188h-281q-57 0 -98 40l-81 81q-40 41 -40 98v62q0 57 40 98l81 81
q41 40 98 40h343z" />
    <glyph glyph-name="r" unicode="r" horiz-adv-x="625" 
d="M438 625q25 0 43.5 -18.5t18.5 -44.5q0 -25 -18.5 -43.5t-43.5 -18.5h-93q-6 -1 -11 -5l-209 -208v-225q0 -25 -18.5 -43.5t-43.5 -18.5q-26 0 -44.5 18.5t-18.5 43.5v500q0 26 18.5 44.5t44.5 18.5q25 0 43.5 -18.5t18.5 -44.5v-99l121 122q41 40 98 40h94z" />
    <glyph glyph-name="s" unicode="s" 
d="M504 335l103 -103q18 -19 18 -45q0 -25 -18 -44l-103 -103q-41 -40 -98 -40h-343q-26 0 -44.5 18.5t-18.5 43.5q0 26 18.5 44.5t44.5 18.5h342q6 1 11 4l58 58l-58 59q-5 3 -11 4h-186q-57 0 -98 40l-103 103q-18 19 -18 45q0 25 18 44l103 103q41 40 98 40h344
q25 0 43.5 -18.5t18.5 -44.5q0 -25 -18.5 -43.5t-43.5 -18.5h-343q-6 -1 -11 -4l-58 -59l58 -58q5 -3 11 -4h186q57 0 98 -40z" />
    <glyph glyph-name="t" unicode="t" horiz-adv-x="625" 
d="M438 500h-188v-280q1 -6 5 -11l79 -80q5 -3 11 -4h93q25 0 43.5 -18.5t18.5 -44.5q0 -25 -18.5 -43.5t-43.5 -18.5h-94q-57 0 -98 40l-81 81q-40 41 -40 98v281h-62q-26 0 -44.5 18.5t-18.5 43.5q0 26 18.5 44.5t44.5 18.5h62v62q0 26 18.5 44.5t44.5 18.5
q25 0 43.5 -18.5t18.5 -44.5v-62h188q25 0 43.5 -18.5t18.5 -44.5q0 -25 -18.5 -43.5t-43.5 -18.5z" />
    <glyph glyph-name="u" unicode="u" 
d="M563 625q25 0 43.5 -18.5t18.5 -44.5v-500q0 -25 -18.5 -43.5t-43.5 -18.5h-344q-57 0 -98 40l-81 81q-40 41 -40 98v343q0 26 18.5 44.5t44.5 18.5q25 0 43.5 -18.5t18.5 -44.5v-342q1 -6 5 -11l79 -80q5 -3 11 -4h280v437q0 26 18.5 44.5t44.5 18.5z" />
    <glyph glyph-name="v" unicode="v" 
d="M563 625q25 0 43.5 -18.5t18.5 -44.5v-218q0 -57 -40 -98l-228 -228q-19 -18 -44 -18q-26 0 -45 18l-228 228q-40 41 -40 98v218q0 26 18.5 44.5t44.5 18.5q25 0 43.5 -18.5t18.5 -44.5v-217q1 -6 5 -11l183 -183l183 183q3 5 4 11v217q0 26 18.5 44.5t44.5 18.5z" />
    <glyph glyph-name="w" unicode="w" horiz-adv-x="751" 
d="M563 625q25 0 43.5 -18.5t18.5 -44.5v-500q0 -25 -18.5 -43.5t-43.5 -18.5q-26 0 -45 18l-205 206l-206 -206q-19 -18 -45 -18q-25 0 -43.5 18.5t-18.5 43.5v500q0 26 18.5 44.5t44.5 18.5q25 0 43.5 -18.5t18.5 -44.5v-349l143 144q19 18 45 18q25 0 44 -18l143 -144
v349q0 26 18.5 44.5t44.5 18.5z" />
    <glyph glyph-name="x" unicode="x" 
d="M407 306l200 -199q18 -19 18 -45q0 -25 -18.5 -43.5t-43.5 -18.5q-26 0 -45 18l-196 197l-198 -211q-19 -19 -46 -19q-24 0 -43 17.5t-19 44.5q0 25 17 43l200 213l-215 215q-18 19 -18 44q0 26 18.5 44.5t43.5 18.5q26 0 45 -18l212 -213l198 211q18 20 46 20
q24 0 43 -17.5t19 -45.5q0 -24 -17 -42z" />
    <glyph glyph-name="y" unicode="y" 
d="M562 625q26 0 44.5 -18.5t18.5 -44.5v-468q0 -57 -40 -98l-81 -81q-41 -40 -98 -40h-219q-25 0 -43.5 18.5t-18.5 43.5q0 26 18.5 44.5t43.5 18.5h218q6 1 11 4l80 80q3 5 4 11v30h-281q-57 0 -98 40l-81 81q-40 41 -40 98v218q0 26 18.5 44.5t43.5 18.5q26 0 44.5 -18.5
t18.5 -44.5v-217q1 -6 4 -11l80 -80q5 -3 11 -4h280v312q0 26 18.5 44.5t43.5 18.5z" />
    <glyph glyph-name="z" unicode="z" 
d="M563 125q25 0 43.5 -18.5t18.5 -44.5q0 -25 -18.5 -43.5t-43.5 -18.5h-500q-26 0 -44.5 18.5t-18.5 43.5q0 26 18 45l394 393h-349q-26 0 -44.5 18.5t-18.5 43.5q0 26 18.5 44.5t44.5 18.5h500q25 0 43.5 -18.5t18.5 -43.5q0 -26 -18 -45l-394 -393h350z" />
    <glyph glyph-name="braceleft" unicode="{" horiz-adv-x="625" 
d="M438 125q25 0 43.5 -18.5t18.5 -44.5q0 -25 -18.5 -43.5t-43.5 -18.5h-94q-57 0 -98 40l-81 81q-40 41 -40 98v156h-62q-26 0 -44.5 18.5t-18.5 43.5q0 26 18.5 44.5t44.5 18.5h62v156q0 57 40 98l81 81q41 40 98 40h94q25 0 43.5 -18.5t18.5 -44.5q0 -25 -18.5 -43.5
t-43.5 -18.5h-93q-6 -1 -11 -4l-79 -80q-4 -5 -5 -11v-435q1 -6 5 -11l79 -80q5 -3 11 -4h93z" />
    <glyph glyph-name="bar" unicode="|" horiz-adv-x="250" 
d="M0 812q0 26 18.5 44.5t44.5 18.5q25 0 43.5 -18.5t18.5 -44.5v-750q0 -25 -18.5 -43.5t-43.5 -18.5q-26 0 -44.5 18.5t-18.5 43.5v750z" />
    <glyph glyph-name="braceright" unicode="}" horiz-adv-x="625" 
d="M438 500q25 0 43.5 -18.5t18.5 -44.5q0 -25 -18.5 -43.5t-43.5 -18.5h-63v-156q0 -57 -40 -98l-81 -81q-41 -40 -98 -40h-93q-26 0 -44.5 18.5t-18.5 43.5q0 26 18.5 44.5t44.5 18.5h92q6 1 11 4l80 80q3 5 4 11v435q-1 6 -4 11l-80 80q-5 3 -11 4h-92q-26 0 -44.5 18.5
t-18.5 43.5q0 26 18.5 44.5t44.5 18.5h93q57 0 98 -40l81 -81q40 -41 40 -98v-156h63z" />
    <glyph glyph-name="asciitilde" unicode="~" horiz-adv-x="625" 
d="M393 857q19 18 45 18q25 0 43.5 -18.5t18.5 -43.5q0 -26 -18 -45l-125 -125q-19 -18 -44 -18q-26 0 -45 18l-80 81l-81 -81q-19 -18 -45 -18q-25 0 -43.5 18.5t-18.5 44.5q0 25 18 44l125 125q19 18 45 18q25 0 44 -18l81 -81z" />
    <glyph glyph-name="bullet" unicode="&#x2022;" horiz-adv-x="625" 
d="M188 500h125q25 0 43.5 -18.5t18.5 -44.5v-124q0 -26 -18.5 -44.5t-43.5 -18.5h-125q-26 0 -44.5 18.5t-18.5 44.5v124q0 26 18.5 44.5t44.5 18.5z" />
    <glyph glyph-name="quotedblleft" unicode="&#x201c;" 
d="M375 812q0 26 18.5 44.5t44.5 18.5q25 0 43.5 -18.5t18.5 -44.5v-62h63q25 0 43.5 -18.5t18.5 -44.5v-125q0 -25 -18.5 -43.5t-43.5 -18.5h-125q-26 0 -44.5 18.5t-18.5 43.5v250zM0 812q0 26 18.5 44.5t44.5 18.5q25 0 43.5 -18.5t18.5 -44.5v-62h63q25 0 43.5 -18.5
t18.5 -44.5v-125q0 -25 -18.5 -43.5t-43.5 -18.5h-125q-26 0 -44.5 18.5t-18.5 43.5v250z" />
    <glyph glyph-name="quotedblright" unicode="&#x201d;" 
d="M63 875h125q25 0 43.5 -18.5t18.5 -44.5v-250q0 -25 -18.5 -43.5t-43.5 -18.5q-26 0 -44.5 18.5t-18.5 43.5v63h-62q-26 0 -44.5 18.5t-18.5 43.5v125q0 26 18.5 44.5t44.5 18.5zM438 875h125q25 0 43.5 -18.5t18.5 -44.5v-250q0 -25 -18.5 -43.5t-43.5 -18.5
q-26 0 -44.5 18.5t-18.5 43.5v63h-62q-26 0 -44.5 18.5t-18.5 43.5v125q0 26 18.5 44.5t44.5 18.5z" />
    <glyph glyph-name="quoteleft" unicode="&#x2018;" horiz-adv-x="625" 
d="M125 812q0 26 18.5 44.5t44.5 18.5q25 0 43.5 -18.5t18.5 -44.5v-62h63q25 0 43.5 -18.5t18.5 -44.5v-125q0 -25 -18.5 -43.5t-43.5 -18.5h-125q-26 0 -44.5 18.5t-18.5 43.5v250z" />
    <glyph glyph-name="quoteright" unicode="&#x2019;" horiz-adv-x="625" 
d="M188 875h125q25 0 43.5 -18.5t18.5 -44.5v-250q0 -25 -18.5 -43.5t-43.5 -18.5q-26 0 -44.5 18.5t-18.5 43.5v63h-62q-26 0 -44.5 18.5t-18.5 43.5v125q0 26 18.5 44.5t44.5 18.5z" />
    <glyph glyph-name="nonbreakingspace" unicode="&#xa0;" 
 />
  </font>
</defs>
</svg>
